<?xml version="1.0" standalone="no"?><!DOCTYPE svg PUBLIC "-//W3C//DTD SVG 1.1//EN" "http://www.w3.org/Graphics/SVG/1.1/DTD/svg11.dtd"><svg class="icon" height="512" viewBox="0 0 1024 1024" version="1.1" xmlns="http://www.w3.org/2000/svg"><path d="M659.392 159.616h169.216c21.248 0 38.656 17.344 38.656 38.656v681.408a38.72 38.72 0 0 1-38.656 38.656H195.456a38.72 38.72 0 0 1-38.656-38.656V198.272c0-21.248 17.344-38.656 38.656-38.656H350.08" fill="#0099FF" /><path d="M828.544 928H195.456a48.384 48.384 0 0 1-48.32-48.32V198.272c0-26.624 21.696-48.32 48.32-48.32H350.08v19.392H195.456a28.992 28.992 0 0 0-28.992 28.928v681.408c0 16 12.992 28.992 28.992 28.992h633.088a28.992 28.992 0 0 0 28.928-28.992V198.272a28.992 28.992 0 0 0-28.928-28.928h-169.216v-19.392h169.216c26.624 0 48.32 21.696 48.32 48.32v681.408a48.384 48.384 0 0 1-48.32 48.32z" fill="#0099FF" /><path d="M483.648 691.392a28.736 28.736 0 0 1-18.688-6.912L332.16 571.712a9.664 9.664 0 1 1 12.48-14.784l132.8 112.832a10.24 10.24 0 0 0 7.04 2.24 9.92 9.92 0 0 0 6.592-3.392l187.2-220.288a9.6 9.6 0 1 1 14.72 12.48l-187.136 220.288a28.864 28.864 0 0 1-22.208 10.304z" fill="#FFFFFF" /><path d="M666.176 194.24a19.392 19.392 0 0 1-19.328 19.328H377.152a19.392 19.392 0 0 1-19.328-19.328V124.992c0-10.624 8.704-19.328 19.328-19.328h269.76c10.624 0 19.328 8.704 19.328 19.328v69.248z" fill="#0099FF" /><path d="M646.848 223.232H377.152a28.992 28.992 0 0 1-28.992-28.992V124.992c0-16 12.992-28.992 28.992-28.992h269.76c16 0 28.992 12.992 28.992 28.992v69.248c0 16-13.056 28.992-29.056 28.992zM377.152 115.328a9.728 9.728 0 0 0-9.664 9.664v69.248c0 5.312 4.288 9.6 9.664 9.6h269.76a9.6 9.6 0 0 0 9.664-9.6V124.992a9.728 9.728 0 0 0-9.664-9.664H377.152z" fill="#FFFFFF" /></svg>